
<svg xmlns="http://www.w3.org/2000/svg" width="120" height="120" viewBox="0 0 48 48" role="img" aria-label="Property Listings">
  <defs>
    <linearGradient id="g" x1="0" x2="1" y1="0" y2="1">
      <stop offset="0" stop-color="#3AA7FF"/>
      <stop offset="1" stop-color="#2A6BFF"/>
    </linearGradient>
  </defs>

  <rect x="0" y="0" width="48" height="48" rx="9" ry="9" fill="url(#g)"/>

  <g transform="translate(8,10)" fill="#FFFFFF" fill-rule="evenodd">
    <path d="M16 0L0 12h4v14h8V20h8v6h8V12h4z"/>
  </g>

  <g transform="translate(28,20)">
    <path d="M6 0C3.2 0 1 2.2 1 5c0 4 5 9 5 9s5-5 5-9c0-2.8-2.2-5-5-5zm0 7.2A2.2 2.2 0 1 1 6 2.8 2.2 2.2 0 0 1 6 7.2z" fill="#FFFFFF" opacity="0.95"/>
  </g>
</svg>
